<svg width="40" height="41" viewBox="0 0 40 41" fill="none" xmlns="http://www.w3.org/2000/svg">
<path d="M19.3963 0.115479H20.1922C24.5376 0.115479 28.7315 1.81374 32.7738 5.21028C37.0687 9.68281 39.2162 14.3757 39.2162 19.289V21.1947C39.2162 24.0468 38.1425 27.3979 35.995 31.2482C33.3422 35.1374 29.7294 37.8209 25.1566 39.2988C23.0344 39.8432 21.2659 40.1155 19.8511 40.1155H19.7374C14.4445 40.1155 9.7138 37.9894 5.54519 33.7373C2.00819 29.5888 0.239685 25.0515 0.239685 20.1252C0.239685 14.8619 2.24188 10.0458 6.24627 5.67698C10.4149 1.96931 14.7982 0.115479 19.3963 0.115479ZM20.5522 16.6833V17.6361C20.5522 17.7917 20.4701 17.8695 20.3059 17.8695C17.8931 17.5324 15.8214 16.6639 14.0908 15.2638L12.4802 13.7275H12.3476C12.3476 13.8572 12.196 14.1748 11.8928 14.6804V16.0999C11.9939 16.9037 12.5308 17.8112 13.5034 18.8223V18.939C12.9729 18.939 12.436 18.7834 11.8928 18.4723V18.589C11.8928 20.1058 12.8529 21.4086 14.773 22.4976L14.5456 22.6143H13.9772L13.3898 22.4976V22.7309C14.274 24.3903 15.392 25.22 16.7436 25.22V25.57C15.2277 26.5164 13.7245 26.9896 12.2339 26.9896H11.5518V27.2229C13.7245 28.2471 15.6067 28.7591 17.1984 28.7591C20.5332 28.7591 23.3755 27.3785 25.7251 24.6172C27.4178 22.2059 28.2641 19.9178 28.2641 17.7528V16.9361C29.4894 15.7305 30.1084 15.0563 30.121 14.9137V14.7971C29.6789 15.0304 29.0599 15.2313 28.2641 15.3999L28.1504 15.1471C28.8705 14.7193 29.4073 14.1294 29.761 13.3775V13.2608H29.6473C28.5104 13.8183 27.822 14.097 27.582 14.097H27.2409C26.3946 13.384 25.624 12.9886 24.9292 12.9108H24.0008C22.7123 12.9108 21.6764 13.6562 20.8933 15.1471C20.6659 15.536 20.5522 16.0481 20.5522 16.6833Z" fill="#144355"/>
</svg>
