<svg width="40" height="40" viewBox="0 0 40 40" fill="none" xmlns="http://www.w3.org/2000/svg">
<path d="M19.3881 0.115479H20.589C25.4956 0.115479 30.1439 2.14988 34.5341 6.21868C37.6201 9.87178 39.318 13.1785 39.6279 16.1387C39.8603 17.537 39.9765 18.4251 39.9765 18.803V20.4091C39.9765 23.004 39.0727 26.0084 37.265 29.4222C34.6309 33.6295 30.8799 36.552 26.0121 38.1896C23.5458 38.8069 21.6155 39.1155 20.221 39.1155H19.7561C14.6559 39.1155 9.92357 37.1126 5.55928 33.1068C1.8535 29.1009 0.000610352 24.4464 0.000610352 19.1431V18.9164C0.000610352 18.74 0.0393467 18.5888 0.116819 18.4629C0.116819 18.3747 0.078083 18.3306 0.000610352 18.3306C0.504183 14.5767 1.5307 11.5409 3.08015 9.22304C5.53345 5.33059 9.3167 2.55928 14.4299 0.909083C16.3409 0.380013 17.9936 0.115479 19.3881 0.115479ZM16.6766 12.5675L16.7928 16.1387C16.7928 16.2521 16.6766 16.3718 16.4442 16.4977H14.4299V20.5225H16.4442C16.5604 20.5225 16.6766 20.6421 16.7928 20.8815V30.8015L16.8509 31.5007H21.0538V20.7681C21.0796 20.6043 21.1571 20.5225 21.2862 20.5225H24.7144C24.8693 20.5225 25.0695 19.2565 25.3148 16.7245V16.4977H21.2862C21.1313 16.4977 21.0538 16.4222 21.0538 16.271V13.4934C21.0538 12.3093 21.764 11.6542 23.1843 11.5283H25.5472V8.07042C25.5472 7.84368 24.7208 7.7303 23.0681 7.7303H22.4677C19.7432 7.7303 17.9678 8.72546 17.1414 10.7158C16.9865 11.1315 16.8316 11.7487 16.6766 12.5675Z" fill="#144355"/>
</svg>
