<svg width="41" height="41" viewBox="0 0 41 41" fill="none" xmlns="http://www.w3.org/2000/svg">
<path d="M19.043 0.115479H21.8915C24.9402 0.115479 28.4088 1.37946 32.2973 3.90741C35.2297 6.20201 37.3548 8.85312 38.6725 11.8607C39.861 14.7258 40.4552 17.1435 40.4552 19.114V20.7669C40.4552 25.2006 38.6402 29.5953 35.0101 33.9512C30.7987 38.0607 25.9091 40.1155 20.3413 40.1155C13.3912 40.1155 7.7136 36.868 3.30843 30.3731C1.42235 26.8729 0.479309 23.431 0.479309 20.0474C0.479309 14.473 2.76586 9.44946 7.33896 4.97693C11.602 1.73596 15.5034 0.115479 19.043 0.115479ZM9.81929 17.4417V23.6254C9.81929 26.996 10.8851 29.2453 13.0166 30.3731C13.9725 30.9176 17.0471 31.1186 22.2403 30.976C26.2192 30.976 28.5057 30.5417 29.1 29.6731C30.4435 28.5971 31.1152 26.8146 31.1152 24.3255V16.3722C31.1152 13.2349 30.0107 11.1801 27.8017 10.2078L26.329 9.7217L24.8369 9.60503H16.2139C13.1393 9.60503 11.0853 11.1088 10.0518 14.1165C9.8968 15.0369 9.81929 16.1453 9.81929 17.4417ZM16.5627 11.5107H24.8369C27.834 11.5107 29.3325 13.0923 29.3325 16.2555V24.6755C28.932 27.6054 27.7112 29.0703 25.6701 29.0703H22.2403C20.6384 29.0703 18.9461 29.1092 17.1634 29.1869C14.1922 29.1869 12.4546 28.2406 11.9508 26.3479C11.7958 25.2978 11.7183 23.7162 11.7183 21.6031V18.9779C11.7183 15.0239 12.0348 13.0469 12.6678 13.0469C13.3008 12.0228 14.5991 11.5107 16.5627 11.5107ZM24.9532 14.7193C25.302 15.5101 25.7412 15.9055 26.2708 15.9055C26.8005 15.9055 27.2333 15.5101 27.5691 14.7193C27.3883 13.7599 26.9103 13.2803 26.1352 13.2803C25.3472 13.5266 24.9532 14.0063 24.9532 14.7193ZM15.0319 20.4169C15.0319 22.9708 16.4916 24.7468 19.4112 25.745H21.7752C24.6044 24.7209 26.0189 22.906 26.0189 20.3002V20.0474C26.0189 18.5695 25.2697 17.1889 23.7711 15.9055C22.7506 15.1925 21.6913 14.8359 20.5932 14.8359H20.4769C18.0354 14.8359 16.3366 16.0999 15.3807 18.6279C15.2515 18.7964 15.1352 19.3927 15.0319 20.4169ZM20.4769 16.7222H20.5932C22.2984 16.7222 23.4417 17.6361 24.023 19.464C24.1006 19.5678 24.1393 19.8465 24.1393 20.3002C23.7647 22.7504 22.5826 23.9755 20.5932 23.9755C19.0172 23.9755 17.8739 23.1847 17.1634 21.6031C17.06 21.4734 16.9761 21.078 16.9115 20.4169C17.1957 17.9538 18.3842 16.7222 20.4769 16.7222Z" fill="#144355"/>
</svg>
