<svg width="60" height="60" viewBox="0 0 60 60" fill="none" xmlns="http://www.w3.org/2000/svg">
<g filter="url(#filter0_i)">
<path fill-rule="evenodd" clip-rule="evenodd" d="M29.7345 1.06194C45.8632 1.06194 58.9381 14.1368 58.9381 30.2655C58.9381 46.3942 45.8632 59.469 29.7345 59.469C13.6058 59.469 0.531 46.3942 0.531 30.2655C0.531 14.1368 13.6058 1.06194 29.7345 1.06194Z" fill="#FFEE40"/>
<path fill-rule="evenodd" clip-rule="evenodd" d="M29.7345 1.06194C45.8632 1.06194 58.9381 14.1368 58.9381 30.2655C58.9381 46.3942 45.8632 59.469 29.7345 59.469C13.6058 59.469 0.531 46.3942 0.531 30.2655C0.531 14.1368 13.6058 1.06194 29.7345 1.06194Z" fill="url(#paint0_linear)" style="mix-blend-mode:overlay"/>
</g>
<path fill-rule="evenodd" clip-rule="evenodd" d="M29.7346 3.7167C44.397 3.7167 56.2834 16.0784 56.2834 31.3274C56.2834 46.5763 44.397 58.938 29.7346 58.938C15.0722 58.938 3.18598 46.5763 3.18598 31.3274C3.18598 16.0784 15.0722 3.7167 29.7346 3.7167Z" fill="url(#paint1_linear)"/>
<path fill-rule="evenodd" clip-rule="evenodd" d="M29.7346 3.7167C44.397 3.7167 56.2834 16.0784 56.2834 31.3274C56.2834 46.5763 44.397 58.938 29.7346 58.938C15.0722 58.938 3.18598 46.5763 3.18598 31.3274C3.18598 16.0784 15.0722 3.7167 29.7346 3.7167Z" fill="url(#paint2_linear)" style="mix-blend-mode:overlay"/>
<g filter="url(#filter1_dii)">
<path fill-rule="evenodd" clip-rule="evenodd" d="M21.504 13.8054C23.117 13.8054 24.4244 17.3712 24.4244 21.77C24.4244 26.1687 23.117 29.7346 21.504 29.7346C19.8912 29.7346 18.5837 26.1687 18.5837 21.77C18.5837 17.3712 19.8912 13.8054 21.504 13.8054Z" fill="#A66707"/>
</g>
<g filter="url(#filter2_dii)">
<path fill-rule="evenodd" clip-rule="evenodd" d="M37.965 13.8054C39.5779 13.8054 40.8853 17.3712 40.8853 21.77C40.8853 26.1687 39.5779 29.7346 37.965 29.7346C36.3521 29.7346 35.0447 26.1687 35.0447 21.77C35.0447 17.3712 36.3521 13.8054 37.965 13.8054Z" fill="#A66707"/>
</g>
<g filter="url(#filter3_dii)">
<path fill-rule="evenodd" clip-rule="evenodd" d="M13.1403 34.5861C16.7065 35.7092 21.339 37.1682 29.2039 37.1682H29.22H29.7349H29.7506C37.6089 37.1682 42.2376 35.7093 45.8009 34.5861C46.4966 34.3668 47.1517 34.1603 47.7823 33.98C48.823 33.98 48.8499 34.7108 48.8499 35.5752C48.8499 39.9973 46.6445 43.7465 43.014 47.2567C39.5925 50.5647 34.9006 52.5664 29.7506 52.5664C29.7506 52.5581 29.7449 52.5515 29.7349 52.5463V52.5664C29.7349 52.5664 29.6074 52.547 29.4773 52.5367C29.3474 52.547 29.22 52.5664 29.22 52.5664V52.5461C29.2096 52.5513 29.2039 52.558 29.2039 52.5664C24.0497 52.5664 19.3538 50.5647 15.9295 47.2567C12.2961 43.7465 10.0889 39.9973 10.0889 35.5752C10.0889 34.7108 10.1158 33.98 11.1573 33.98C11.7884 34.1603 12.444 34.3668 13.1403 34.5861Z" fill="#A66707"/>
</g>
<g filter="url(#filter4_di)">
<path fill-rule="evenodd" clip-rule="evenodd" d="M29.3029 38.7609C38.3709 38.7479 46.1663 36.9505 47.5223 35.5751C47.5223 37.6894 46.7871 40.0338 46.2098 40.6194C45.6325 41.2049 36.0357 43.2742 29.2037 43.2742V43.2438C29.2037 43.2541 29.2036 43.2643 29.2036 43.2744C22.2741 43.2744 13.3289 41.205 12.7434 40.6195C12.1579 40.034 11.416 37.6789 11.416 35.5752C12.7881 36.9474 20.1397 38.7394 29.3029 38.7609Z" fill="white"/>
<path fill-rule="evenodd" clip-rule="evenodd" d="M29.3029 38.7609C38.3709 38.7479 46.1663 36.9505 47.5223 35.5751C47.5223 37.6894 46.7871 40.0338 46.2098 40.6194C45.6325 41.2049 36.0357 43.2742 29.2037 43.2742V43.2438C29.2037 43.2541 29.2036 43.2643 29.2036 43.2744C22.2741 43.2744 13.3289 41.205 12.7434 40.6195C12.1579 40.034 11.416 37.6789 11.416 35.5752C12.7881 36.9474 20.1397 38.7394 29.3029 38.7609Z" fill="url(#paint3_linear)"/>
</g>
<defs>
<filter id="filter0_i" x="0.53125" y="-23.938" width="58.4071" height="83.4071" filterUnits="userSpaceOnUse" color-interpolation-filters="sRGB">
<feFlood flood-opacity="0" result="BackgroundImageFix"/>
<feBlend mode="normal" in="SourceGraphic" in2="BackgroundImageFix" result="shape"/>
<feColorMatrix in="SourceAlpha" type="matrix" values="0 0 0 0 0 0 0 0 0 0 0 0 0 0 0 0 0 0 127 0" result="hardAlpha"/>
<feOffset dy="-25"/>
<feGaussianBlur stdDeviation="30"/>
<feComposite in2="hardAlpha" operator="arithmetic" k2="-1" k3="1"/>
<feColorMatrix type="matrix" values="0 0 0 0 1 0 0 0 0 0.603922 0 0 0 0 0 0 0 0 1 0"/>
<feBlend mode="normal" in2="shape" result="effect1_innerShadow"/>
</filter>
<filter id="filter1_dii" x="17.584" y="13.8054" width="7.84067" height="17.9292" filterUnits="userSpaceOnUse" color-interpolation-filters="sRGB">
<feFlood flood-opacity="0" result="BackgroundImageFix"/>
<feColorMatrix in="SourceAlpha" type="matrix" values="0 0 0 0 0 0 0 0 0 0 0 0 0 0 0 0 0 0 127 0"/>
<feOffset dy="1"/>
<feGaussianBlur stdDeviation="0.5"/>
<feColorMatrix type="matrix" values="0 0 0 0 1 0 0 0 0 1 0 0 0 0 1 0 0 0 1 0"/>
<feBlend mode="normal" in2="BackgroundImageFix" result="effect1_dropShadow"/>
<feBlend mode="normal" in="SourceGraphic" in2="effect1_dropShadow" result="shape"/>
<feColorMatrix in="SourceAlpha" type="matrix" values="0 0 0 0 0 0 0 0 0 0 0 0 0 0 0 0 0 0 127 0" result="hardAlpha"/>
<feOffset dy="2"/>
<feGaussianBlur stdDeviation="2.3"/>
<feComposite in2="hardAlpha" operator="arithmetic" k2="-1" k3="1"/>
<feColorMatrix type="matrix" values="0 0 0 0 0 0 0 0 0 0 0 0 0 0 0 0 0 0 1 0"/>
<feBlend mode="normal" in2="shape" result="effect2_innerShadow"/>
<feColorMatrix in="SourceAlpha" type="matrix" values="0 0 0 0 0 0 0 0 0 0 0 0 0 0 0 0 0 0 127 0" result="hardAlpha"/>
<feOffset/>
<feGaussianBlur stdDeviation="1.5"/>
<feComposite in2="hardAlpha" operator="arithmetic" k2="-1" k3="1"/>
<feColorMatrix type="matrix" values="0 0 0 0 0 0 0 0 0 0 0 0 0 0 0 0 0 0 0.75 0"/>
<feBlend mode="normal" in2="effect2_innerShadow" result="effect3_innerShadow"/>
</filter>
<filter id="filter2_dii" x="34.0449" y="13.8054" width="7.84067" height="17.9292" filterUnits="userSpaceOnUse" color-interpolation-filters="sRGB">
<feFlood flood-opacity="0" result="BackgroundImageFix"/>
<feColorMatrix in="SourceAlpha" type="matrix" values="0 0 0 0 0 0 0 0 0 0 0 0 0 0 0 0 0 0 127 0"/>
<feOffset dy="1"/>
<feGaussianBlur stdDeviation="0.5"/>
<feColorMatrix type="matrix" values="0 0 0 0 1 0 0 0 0 1 0 0 0 0 1 0 0 0 1 0"/>
<feBlend mode="normal" in2="BackgroundImageFix" result="effect1_dropShadow"/>
<feBlend mode="normal" in="SourceGraphic" in2="effect1_dropShadow" result="shape"/>
<feColorMatrix in="SourceAlpha" type="matrix" values="0 0 0 0 0 0 0 0 0 0 0 0 0 0 0 0 0 0 127 0" result="hardAlpha"/>
<feOffset dy="2"/>
<feGaussianBlur stdDeviation="2.3"/>
<feComposite in2="hardAlpha" operator="arithmetic" k2="-1" k3="1"/>
<feColorMatrix type="matrix" values="0 0 0 0 0 0 0 0 0 0 0 0 0 0 0 0 0 0 1 0"/>
<feBlend mode="normal" in2="shape" result="effect2_innerShadow"/>
<feColorMatrix in="SourceAlpha" type="matrix" values="0 0 0 0 0 0 0 0 0 0 0 0 0 0 0 0 0 0 127 0" result="hardAlpha"/>
<feOffset/>
<feGaussianBlur stdDeviation="1.5"/>
<feComposite in2="hardAlpha" operator="arithmetic" k2="-1" k3="1"/>
<feColorMatrix type="matrix" values="0 0 0 0 0 0 0 0 0 0 0 0 0 0 0 0 0 0 0.75 0"/>
<feBlend mode="normal" in2="effect2_innerShadow" result="effect3_innerShadow"/>
</filter>
<filter id="filter3_dii" x="9.08887" y="33.98" width="40.761" height="20.5864" filterUnits="userSpaceOnUse" color-interpolation-filters="sRGB">
<feFlood flood-opacity="0" result="BackgroundImageFix"/>
<feColorMatrix in="SourceAlpha" type="matrix" values="0 0 0 0 0 0 0 0 0 0 0 0 0 0 0 0 0 0 127 0"/>
<feOffset dy="1"/>
<feGaussianBlur stdDeviation="0.5"/>
<feColorMatrix type="matrix" values="0 0 0 0 1 0 0 0 0 1 0 0 0 0 1 0 0 0 0.4 0"/>
<feBlend mode="normal" in2="BackgroundImageFix" result="effect1_dropShadow"/>
<feBlend mode="normal" in="SourceGraphic" in2="effect1_dropShadow" result="shape"/>
<feColorMatrix in="SourceAlpha" type="matrix" values="0 0 0 0 0 0 0 0 0 0 0 0 0 0 0 0 0 0 127 0" result="hardAlpha"/>
<feOffset dy="2"/>
<feGaussianBlur stdDeviation="2.3"/>
<feComposite in2="hardAlpha" operator="arithmetic" k2="-1" k3="1"/>
<feColorMatrix type="matrix" values="0 0 0 0 0 0 0 0 0 0 0 0 0 0 0 0 0 0 1 0"/>
<feBlend mode="normal" in2="shape" result="effect2_innerShadow"/>
<feColorMatrix in="SourceAlpha" type="matrix" values="0 0 0 0 0 0 0 0 0 0 0 0 0 0 0 0 0 0 127 0" result="hardAlpha"/>
<feOffset/>
<feGaussianBlur stdDeviation="1.5"/>
<feComposite in2="hardAlpha" operator="arithmetic" k2="-1" k3="1"/>
<feColorMatrix type="matrix" values="0 0 0 0 0 0 0 0 0 0 0 0 0 0 0 0 0 0 0.75 0"/>
<feBlend mode="normal" in2="effect2_innerShadow" result="effect3_innerShadow"/>
</filter>
<filter id="filter4_di" x="10.616" y="35.5751" width="37.7063" height="9.49929" filterUnits="userSpaceOnUse" color-interpolation-filters="sRGB">
<feFlood flood-opacity="0" result="BackgroundImageFix"/>
<feColorMatrix in="SourceAlpha" type="matrix" values="0 0 0 0 0 0 0 0 0 0 0 0 0 0 0 0 0 0 127 0"/>
<feOffset dy="1"/>
<feGaussianBlur stdDeviation="0.4"/>
<feColorMatrix type="matrix" values="0 0 0 0 0 0 0 0 0 0 0 0 0 0 0 0 0 0 1 0"/>
<feBlend mode="normal" in2="BackgroundImageFix" result="effect1_dropShadow"/>
<feBlend mode="normal" in="SourceGraphic" in2="effect1_dropShadow" result="shape"/>
<feColorMatrix in="SourceAlpha" type="matrix" values="0 0 0 0 0 0 0 0 0 0 0 0 0 0 0 0 0 0 127 0" result="hardAlpha"/>
<feOffset/>
<feGaussianBlur stdDeviation="1.25"/>
<feComposite in2="hardAlpha" operator="arithmetic" k2="-1" k3="1"/>
<feColorMatrix type="matrix" values="0 0 0 0 1 0 0 0 0 1 0 0 0 0 1 0 0 0 0.2 0"/>
<feBlend mode="normal" in2="shape" result="effect2_innerShadow"/>
</filter>
<linearGradient id="paint0_linear" x1="60" y1="60" x2="60" y2="0" gradientUnits="userSpaceOnUse">
<stop stop-color="white" stop-opacity="0.01"/>
<stop offset="1" stop-color="white"/>
</linearGradient>
<linearGradient id="paint1_linear" x1="48.6948" y1="16.8998" x2="48.6948" y2="-22.1143" gradientUnits="userSpaceOnUse">
<stop stop-color="white" stop-opacity="0.01"/>
<stop offset="1" stop-color="white"/>
</linearGradient>
<linearGradient id="paint2_linear" x1="15.9293" y1="2.65479" x2="15.9293" y2="31.0619" gradientUnits="userSpaceOnUse">
<stop stop-color="white"/>
<stop offset="1" stop-color="white" stop-opacity="0.01"/>
</linearGradient>
<linearGradient id="paint3_linear" x1="9.99217" y1="43.2744" x2="41.9511" y2="55.0948" gradientUnits="userSpaceOnUse">
<stop stop-color="#C7CACD"/>
<stop offset="0.430604" stop-color="white"/>
<stop offset="1" stop-color="#C7CACD"/>
</linearGradient>
</defs>
</svg>
