<svg width="60" height="60" viewBox="0 0 60 60" fill="none" xmlns="http://www.w3.org/2000/svg">
<g filter="url(#filter0_i)">
<path fill-rule="evenodd" clip-rule="evenodd" d="M29.7345 1.06194C45.8632 1.06194 58.9381 14.1368 58.9381 30.2655C58.9381 46.3942 45.8632 59.469 29.7345 59.469C13.6058 59.469 0.531 46.3942 0.531 30.2655C0.531 14.1368 13.6058 1.06194 29.7345 1.06194Z" fill="#FFEE40"/>
<path fill-rule="evenodd" clip-rule="evenodd" d="M29.7345 1.06194C45.8632 1.06194 58.9381 14.1368 58.9381 30.2655C58.9381 46.3942 45.8632 59.469 29.7345 59.469C13.6058 59.469 0.531 46.3942 0.531 30.2655C0.531 14.1368 13.6058 1.06194 29.7345 1.06194Z" fill="url(#paint0_linear)" style="mix-blend-mode:overlay"/>
</g>
<path fill-rule="evenodd" clip-rule="evenodd" d="M29.7347 3.7167C44.397 3.7167 56.2833 16.0784 56.2833 31.3274C56.2833 46.5763 44.397 58.938 29.7347 58.938C15.0722 58.938 3.18594 46.5763 3.18594 31.3274C3.18594 16.0784 15.0722 3.7167 29.7347 3.7167Z" fill="url(#paint1_linear)"/>
<path fill-rule="evenodd" clip-rule="evenodd" d="M29.7347 3.7167C44.397 3.7167 56.2833 16.0784 56.2833 31.3274C56.2833 46.5763 44.397 58.938 29.7347 58.938C15.0722 58.938 3.18594 46.5763 3.18594 31.3274C3.18594 16.0784 15.0722 3.7167 29.7347 3.7167Z" fill="url(#paint2_linear)" style="mix-blend-mode:overlay"/>
<g filter="url(#filter1_dii)">
<path fill-rule="evenodd" clip-rule="evenodd" d="M41.4214 39.5308C41.5494 39.4189 41.9464 39.0716 41.9464 39.5464C41.9464 41.0708 36.9882 45.1331 29.9996 45.1331C23.0109 45.1331 18.0527 41.0708 18.0527 39.5464C18.0527 39.0716 18.4499 39.4189 18.5778 39.5308C18.5846 39.5367 18.5906 39.542 18.5957 39.5464C19.9235 40.6889 22.9625 43.0093 29.9996 43.0093C37.0366 43.0093 40.0756 40.6889 41.4035 39.5464C41.4087 39.542 41.4147 39.5367 41.4214 39.5308Z" fill="#A66707"/>
</g>
<g filter="url(#filter2_dii)">
<path fill-rule="evenodd" clip-rule="evenodd" d="M38.2305 20.177C39.99 20.177 41.4163 22.1976 41.4163 24.6903C41.4163 27.1829 39.99 29.2035 38.2305 29.2035C36.471 29.2035 35.0447 27.1829 35.0447 24.6903C35.0447 22.1976 36.471 20.177 38.2305 20.177Z" fill="#A66707"/>
</g>
<g filter="url(#filter3_dii)">
<path fill-rule="evenodd" clip-rule="evenodd" d="M21.2393 20.177C22.9988 20.177 24.4251 22.1976 24.4251 24.6903C24.4251 27.1829 22.9988 29.2035 21.2393 29.2035C19.4798 29.2035 18.0535 27.1829 18.0535 24.6903C18.0535 22.1976 19.4798 20.177 21.2393 20.177Z" fill="#A66707"/>
</g>
<defs>
<filter id="filter0_i" x="0.53125" y="-23.9381" width="58.4071" height="83.4071" filterUnits="userSpaceOnUse" color-interpolation-filters="sRGB">
<feFlood flood-opacity="0" result="BackgroundImageFix"/>
<feBlend mode="normal" in="SourceGraphic" in2="BackgroundImageFix" result="shape"/>
<feColorMatrix in="SourceAlpha" type="matrix" values="0 0 0 0 0 0 0 0 0 0 0 0 0 0 0 0 0 0 127 0" result="hardAlpha"/>
<feOffset dy="-25"/>
<feGaussianBlur stdDeviation="30"/>
<feComposite in2="hardAlpha" operator="arithmetic" k2="-1" k3="1"/>
<feColorMatrix type="matrix" values="0 0 0 0 1 0 0 0 0 0.603922 0 0 0 0 0 0 0 0 1 0"/>
<feBlend mode="normal" in2="shape" result="effect1_innerShadow"/>
</filter>
<filter id="filter1_dii" x="17.0527" y="39.3032" width="25.8937" height="7.82989" filterUnits="userSpaceOnUse" color-interpolation-filters="sRGB">
<feFlood flood-opacity="0" result="BackgroundImageFix"/>
<feColorMatrix in="SourceAlpha" type="matrix" values="0 0 0 0 0 0 0 0 0 0 0 0 0 0 0 0 0 0 127 0"/>
<feOffset dy="1"/>
<feGaussianBlur stdDeviation="0.5"/>
<feColorMatrix type="matrix" values="0 0 0 0 1 0 0 0 0 1 0 0 0 0 1 0 0 0 1 0"/>
<feBlend mode="normal" in2="BackgroundImageFix" result="effect1_dropShadow"/>
<feBlend mode="normal" in="SourceGraphic" in2="effect1_dropShadow" result="shape"/>
<feColorMatrix in="SourceAlpha" type="matrix" values="0 0 0 0 0 0 0 0 0 0 0 0 0 0 0 0 0 0 127 0" result="hardAlpha"/>
<feOffset dy="2"/>
<feGaussianBlur stdDeviation="2.3"/>
<feComposite in2="hardAlpha" operator="arithmetic" k2="-1" k3="1"/>
<feColorMatrix type="matrix" values="0 0 0 0 0 0 0 0 0 0 0 0 0 0 0 0 0 0 1 0"/>
<feBlend mode="normal" in2="shape" result="effect2_innerShadow"/>
<feColorMatrix in="SourceAlpha" type="matrix" values="0 0 0 0 0 0 0 0 0 0 0 0 0 0 0 0 0 0 127 0" result="hardAlpha"/>
<feOffset/>
<feGaussianBlur stdDeviation="1.5"/>
<feComposite in2="hardAlpha" operator="arithmetic" k2="-1" k3="1"/>
<feColorMatrix type="matrix" values="0 0 0 0 0 0 0 0 0 0 0 0 0 0 0 0 0 0 0.75 0"/>
<feBlend mode="normal" in2="effect2_innerShadow" result="effect3_innerShadow"/>
</filter>
<filter id="filter2_dii" x="34.0449" y="20.177" width="8.37165" height="11.0265" filterUnits="userSpaceOnUse" color-interpolation-filters="sRGB">
<feFlood flood-opacity="0" result="BackgroundImageFix"/>
<feColorMatrix in="SourceAlpha" type="matrix" values="0 0 0 0 0 0 0 0 0 0 0 0 0 0 0 0 0 0 127 0"/>
<feOffset dy="1"/>
<feGaussianBlur stdDeviation="0.5"/>
<feColorMatrix type="matrix" values="0 0 0 0 1 0 0 0 0 1 0 0 0 0 1 0 0 0 1 0"/>
<feBlend mode="normal" in2="BackgroundImageFix" result="effect1_dropShadow"/>
<feBlend mode="normal" in="SourceGraphic" in2="effect1_dropShadow" result="shape"/>
<feColorMatrix in="SourceAlpha" type="matrix" values="0 0 0 0 0 0 0 0 0 0 0 0 0 0 0 0 0 0 127 0" result="hardAlpha"/>
<feOffset dy="2"/>
<feGaussianBlur stdDeviation="2.3"/>
<feComposite in2="hardAlpha" operator="arithmetic" k2="-1" k3="1"/>
<feColorMatrix type="matrix" values="0 0 0 0 0 0 0 0 0 0 0 0 0 0 0 0 0 0 1 0"/>
<feBlend mode="normal" in2="shape" result="effect2_innerShadow"/>
<feColorMatrix in="SourceAlpha" type="matrix" values="0 0 0 0 0 0 0 0 0 0 0 0 0 0 0 0 0 0 127 0" result="hardAlpha"/>
<feOffset/>
<feGaussianBlur stdDeviation="1.5"/>
<feComposite in2="hardAlpha" operator="arithmetic" k2="-1" k3="1"/>
<feColorMatrix type="matrix" values="0 0 0 0 0 0 0 0 0 0 0 0 0 0 0 0 0 0 0.75 0"/>
<feBlend mode="normal" in2="effect2_innerShadow" result="effect3_innerShadow"/>
</filter>
<filter id="filter3_dii" x="17.0537" y="20.177" width="8.37165" height="11.0265" filterUnits="userSpaceOnUse" color-interpolation-filters="sRGB">
<feFlood flood-opacity="0" result="BackgroundImageFix"/>
<feColorMatrix in="SourceAlpha" type="matrix" values="0 0 0 0 0 0 0 0 0 0 0 0 0 0 0 0 0 0 127 0"/>
<feOffset dy="1"/>
<feGaussianBlur stdDeviation="0.5"/>
<feColorMatrix type="matrix" values="0 0 0 0 1 0 0 0 0 1 0 0 0 0 1 0 0 0 1 0"/>
<feBlend mode="normal" in2="BackgroundImageFix" result="effect1_dropShadow"/>
<feBlend mode="normal" in="SourceGraphic" in2="effect1_dropShadow" result="shape"/>
<feColorMatrix in="SourceAlpha" type="matrix" values="0 0 0 0 0 0 0 0 0 0 0 0 0 0 0 0 0 0 127 0" result="hardAlpha"/>
<feOffset dy="2"/>
<feGaussianBlur stdDeviation="2.3"/>
<feComposite in2="hardAlpha" operator="arithmetic" k2="-1" k3="1"/>
<feColorMatrix type="matrix" values="0 0 0 0 0 0 0 0 0 0 0 0 0 0 0 0 0 0 1 0"/>
<feBlend mode="normal" in2="shape" result="effect2_innerShadow"/>
<feColorMatrix in="SourceAlpha" type="matrix" values="0 0 0 0 0 0 0 0 0 0 0 0 0 0 0 0 0 0 127 0" result="hardAlpha"/>
<feOffset/>
<feGaussianBlur stdDeviation="1.5"/>
<feComposite in2="hardAlpha" operator="arithmetic" k2="-1" k3="1"/>
<feColorMatrix type="matrix" values="0 0 0 0 0 0 0 0 0 0 0 0 0 0 0 0 0 0 0.75 0"/>
<feBlend mode="normal" in2="effect2_innerShadow" result="effect3_innerShadow"/>
</filter>
<linearGradient id="paint0_linear" x1="60" y1="60" x2="60" y2="0" gradientUnits="userSpaceOnUse">
<stop stop-color="white" stop-opacity="0.01"/>
<stop offset="1" stop-color="white"/>
</linearGradient>
<linearGradient id="paint1_linear" x1="48.247" y1="16.8998" x2="48.247" y2="-22.1143" gradientUnits="userSpaceOnUse">
<stop stop-color="white" stop-opacity="0.01"/>
<stop offset="1" stop-color="white"/>
</linearGradient>
<linearGradient id="paint2_linear" x1="15.7966" y1="2.65479" x2="15.7966" y2="31.0619" gradientUnits="userSpaceOnUse">
<stop stop-color="white"/>
<stop offset="1" stop-color="white" stop-opacity="0.01"/>
</linearGradient>
</defs>
</svg>
