<svg width="162" height="32" viewBox="0 0 162 32" fill="none" xmlns="http://www.w3.org/2000/svg">
<path d="M0 10.6653V16.5895C2.02441 16.5881 4.02924 16.9859 5.89976 17.7601C7.77028 18.5343 9.46978 19.6697 10.901 21.1015C12.3319 22.5327 13.4667 24.2319 14.2404 26.1019C15.0142 27.9719 15.4118 29.9762 15.4105 32H21.3305C21.3251 26.344 19.0762 20.9212 15.0773 16.9215C11.0783 12.9217 5.65593 10.6717 0 10.6653H0Z" fill="white"/>
<path d="M29.6057 0H20.2239C24.97 3.00768 28.9915 7.02862 31.9998 11.7743V2.39241C31.9994 1.75775 31.747 1.14924 31.298 0.700619C30.8491 0.252003 30.2404 -1.57043e-07 29.6057 0Z" fill="white"/>
<path d="M5.89472 0H0V5.33388C7.07009 5.34123 13.8485 8.15302 18.8479 13.1523C23.8473 18.1515 26.6593 24.9298 26.6669 31.9999H31.9999V26.1052C30.7941 19.6265 27.6547 13.6648 22.9949 9.00502C18.3351 4.34523 12.3734 1.20578 5.89472 0Z" fill="white"/>
<path d="M46.5101 3.52246H42.7527V22.4613H46.5101V3.52246Z" fill="white"/>
<path d="M60.3258 11.7281C59.7003 11.1594 58.9681 10.7206 58.1717 10.4371C56.461 9.83639 54.5966 9.83639 52.8859 10.4371C52.0891 10.7204 51.3566 11.1593 50.7309 11.7281C50.1173 12.2938 49.6271 12.9801 49.2909 13.7441C48.9435 14.5775 48.7646 15.4714 48.7646 16.3744C48.7646 17.2773 48.9435 18.1713 49.2909 19.0047C49.6258 19.7708 50.1161 20.459 50.7309 21.0257C51.3555 21.5949 52.0876 22.0336 52.8842 22.3158C54.5947 22.9176 56.4595 22.9176 58.1701 22.3158C58.9669 22.0336 59.6992 21.5949 60.3242 21.0257C60.9387 20.4588 61.429 19.7706 61.7641 19.0047C62.1116 18.1713 62.2904 17.2773 62.2904 16.3744C62.2904 15.4714 62.1116 14.5775 61.7641 13.7441C61.4283 12.9804 60.9387 12.2941 60.3258 11.7281ZM57.7456 18.6047C57.1372 19.1528 56.3473 19.4561 55.5284 19.4561C54.7095 19.4561 53.9196 19.1528 53.3111 18.6047C52.7997 17.9734 52.5207 17.1856 52.5207 16.3731C52.5207 15.5606 52.7997 14.7728 53.3111 14.1415C53.9196 13.5934 54.7095 13.2901 55.5284 13.2901C56.3473 13.2901 57.1372 13.5934 57.7456 14.1415C58.257 14.7728 58.5361 15.5606 58.5361 16.3731C58.5361 17.1856 58.257 17.9734 57.7456 18.6047Z" fill="white"/>
<path d="M73.8155 11.8903H73.7683C73.5945 11.6464 73.3927 11.4237 73.1671 11.2268C72.8937 10.9849 72.5909 10.7784 72.266 10.612C71.4447 10.1906 70.5331 9.97586 69.61 9.98635C68.8011 9.97219 68.0012 10.1573 67.2808 10.5253C66.6095 10.8729 66.0167 11.3547 65.5393 11.9409C65.0525 12.545 64.679 13.2323 64.437 13.9695C64.1796 14.729 64.0485 15.5255 64.0488 16.3274C64.0393 17.1881 64.1836 18.0437 64.4749 18.8537C64.7388 19.5929 65.1502 20.2708 65.6841 20.8461C66.2161 21.4091 66.8616 21.8526 67.578 22.1472C68.3569 22.4646 69.1917 22.6221 70.0328 22.6103C70.6549 22.5996 71.2699 22.4766 71.8483 22.2474C72.497 22.0013 73.059 21.57 73.4643 21.0069H73.5148V22.1859C73.5289 22.5791 73.4641 22.9712 73.3243 23.339C73.1844 23.7068 72.9723 24.0428 72.7005 24.3274C72.3557 24.6325 71.9525 24.8645 71.5153 25.0092C71.0782 25.1539 70.6162 25.2085 70.1574 25.1695C69.4299 25.1776 68.7088 25.0324 68.0412 24.7434C67.3769 24.4465 66.7571 24.0588 66.1995 23.5914L64.1204 26.6945C64.9702 27.379 65.9636 27.8629 67.0265 28.1101C68.0782 28.3519 69.154 28.4737 70.2332 28.473C72.6045 28.473 74.3704 27.876 75.5308 26.6819C76.6913 25.4878 77.2717 23.7384 77.2723 21.4339V10.287H73.8197L73.8155 11.8903ZM73.5898 17.439C73.4416 17.7954 73.2243 18.1191 72.9506 18.3914C72.672 18.669 72.3453 18.8939 71.9864 19.055C71.6138 19.2204 71.2106 19.3059 70.8029 19.3059C70.3951 19.3059 69.9919 19.2204 69.6193 19.055C69.2652 18.8916 68.9428 18.667 68.6669 18.3914C68.392 18.1168 68.1739 17.7907 68.0251 17.4318C67.8763 17.0729 67.7998 16.6881 67.7998 16.2996C67.7998 15.9111 67.8763 15.5263 68.0251 15.1674C68.1739 14.8085 68.392 14.4824 68.6669 14.2078C68.9429 13.9322 69.2653 13.7073 69.6193 13.5434C69.9921 13.3785 70.3952 13.2933 70.8029 13.2933C71.2105 13.2933 71.6136 13.3785 71.9864 13.5434C72.3452 13.7051 72.6718 13.9302 72.9506 14.2078C73.364 14.6233 73.6452 15.1518 73.759 15.7267C73.8727 16.3016 73.8138 16.8974 73.5898 17.439Z" fill="white"/>
<path d="M91.3883 11.7281C90.7628 11.1594 90.0306 10.7206 89.2342 10.4371C87.5235 9.83639 85.6591 9.83639 83.9484 10.4371C83.1516 10.7204 82.4191 11.1593 81.7934 11.7281C81.1798 12.2938 80.6896 12.9801 80.3534 13.7441C80.006 14.5775 79.8271 15.4714 79.8271 16.3744C79.8271 17.2773 80.006 18.1713 80.3534 19.0047C80.6883 19.7708 81.1786 20.459 81.7934 21.0257C82.4185 21.5951 83.1512 22.0338 83.9484 22.3158C85.6589 22.9176 87.5237 22.9176 89.2342 22.3158C90.031 22.0336 90.7634 21.5949 91.3883 21.0257C92.0031 20.459 92.4935 19.7708 92.8283 19.0047C93.1757 18.1713 93.3546 17.2773 93.3546 16.3744C93.3546 15.4714 93.1757 14.5775 92.8283 13.7441C92.4922 12.9801 92.002 12.2938 91.3883 11.7281ZM88.8081 18.6047C88.1997 19.1528 87.4098 19.4561 86.5909 19.4561C85.772 19.4561 84.9821 19.1528 84.3736 18.6047C83.8622 17.9734 83.5832 17.1856 83.5832 16.3731C83.5832 15.5606 83.8622 14.7728 84.3736 14.1415C84.9821 13.5934 85.772 13.2901 86.5909 13.2901C87.4098 13.2901 88.1997 13.5934 88.8081 14.1415C89.3195 14.7728 89.5986 15.5606 89.5986 16.3731C89.5986 17.1856 89.3195 17.9734 88.8081 18.6047Z" fill="white"/>
<path d="M98.3391 10.3713H96.324V22.4614H98.3391V10.3713Z" fill="white"/>
<path d="M97.332 4.1719C97.1366 4.16818 96.9426 4.20529 96.7624 4.28083C96.5821 4.35638 96.4196 4.46871 96.2853 4.61063C96.0804 4.81721 95.9412 5.07981 95.8853 5.36535C95.8295 5.65088 95.8594 5.94657 95.9712 6.21514C96.0831 6.48372 96.272 6.71316 96.5141 6.87456C96.7562 7.03596 97.0406 7.12208 97.3316 7.12208C97.6225 7.12208 97.907 7.03596 98.1491 6.87456C98.3912 6.71316 98.58 6.48372 98.6919 6.21514C98.8038 5.94657 98.8337 5.65088 98.7778 5.36535C98.722 5.07981 98.5828 4.81721 98.3779 4.61063C98.2438 4.46865 98.0815 4.35627 97.9013 4.28072C97.7212 4.20516 97.5273 4.16809 97.332 4.1719Z" fill="white"/>
<path d="M113.245 11.8738C112.678 11.295 111.996 10.8415 111.244 10.5424C110.417 10.2167 109.535 10.0545 108.647 10.0649C107.811 10.0553 106.983 10.2413 106.231 10.6081C105.491 10.9764 104.835 11.4953 104.306 12.1314H104.252V10.3715H102.24V28.352H104.252V20.3184H104.304C104.732 21.0552 105.355 21.6591 106.105 22.0632C106.976 22.5507 107.961 22.7961 108.959 22.7739C109.776 22.7791 110.585 22.6163 111.336 22.2956C112.062 21.9879 112.716 21.5351 113.26 20.9651C113.813 20.3825 114.247 19.6985 114.539 18.9508C115.159 17.3195 115.159 15.5176 114.539 13.8864C114.245 13.1369 113.805 12.453 113.245 11.8738ZM112.534 18.1895C112.347 18.7159 112.053 19.1982 111.671 19.6065C111.289 20.0149 110.828 20.3405 110.316 20.5634C109.182 21.0275 107.912 21.0275 106.779 20.5634C106.265 20.3405 105.803 20.0146 105.421 19.6058C105.039 19.197 104.745 18.7141 104.557 18.187C104.162 17.0412 104.162 15.7959 104.557 14.6502C104.745 14.1231 105.039 13.6401 105.421 13.2314C105.803 12.8226 106.265 12.4966 106.779 12.2738C107.912 11.8096 109.182 11.8096 110.316 12.2738C110.829 12.4966 111.291 12.8226 111.673 13.2314C112.055 13.6401 112.349 14.1231 112.537 14.6502C112.933 15.7959 112.933 17.0412 112.537 18.187L112.534 18.1895Z" fill="white"/>
<path d="M125.155 16.421C124.772 16.1347 124.346 15.9123 123.892 15.7625C123.393 15.5944 122.884 15.4604 122.368 15.3616C121.98 15.2954 121.597 15.2094 121.218 15.104C120.881 15.0123 120.552 14.8912 120.236 14.7419C119.983 14.627 119.754 14.4647 119.563 14.2635C119.399 14.0837 119.312 13.8479 119.317 13.605C119.314 13.343 119.39 13.086 119.537 12.869C119.682 12.6547 119.871 12.474 120.092 12.3393C120.329 12.1965 120.586 12.0919 120.855 12.0294C121.131 11.9613 121.413 11.9265 121.697 11.9259C122.237 11.9091 122.771 12.0482 123.234 12.3267C123.652 12.5898 124.002 12.9482 124.255 13.3726L125.934 12.2619C125.562 11.5277 124.958 10.9371 124.215 10.5819C123.467 10.2344 122.651 10.058 121.826 10.0657C121.267 10.0643 120.71 10.1426 120.173 10.2981C119.658 10.4449 119.169 10.6723 118.725 10.9718C118.301 11.2584 117.947 11.6383 117.692 12.0825C117.428 12.5555 117.294 13.0903 117.305 13.632C117.284 14.1622 117.404 14.6886 117.653 15.157C117.881 15.5488 118.199 15.8808 118.58 16.1254C119.001 16.3909 119.457 16.5953 119.936 16.7326C120.453 16.8875 120.995 17.0254 121.563 17.1461C121.891 17.2151 122.21 17.2926 122.519 17.3785C122.809 17.4564 123.088 17.5737 123.346 17.7271C123.574 17.8622 123.772 18.0425 123.927 18.2568C124.082 18.4942 124.159 18.7743 124.147 19.0576C124.156 19.3554 124.075 19.6489 123.915 19.8997C123.754 20.1375 123.542 20.3361 123.295 20.4808C123.027 20.6405 122.734 20.7543 122.429 20.8176C122.119 20.8857 121.803 20.9204 121.486 20.9212C120.858 20.9455 120.236 20.7932 119.691 20.4816C119.189 20.1623 118.747 19.7569 118.386 19.2842L116.786 20.5246C117.281 21.2938 117.985 21.9069 118.814 22.293C119.664 22.6304 120.573 22.7931 121.488 22.7713C122.083 22.7718 122.677 22.7026 123.256 22.565C123.807 22.4376 124.332 22.2147 124.806 21.9065C125.259 21.6057 125.635 21.2016 125.901 20.7275C126.19 20.1895 126.333 19.5849 126.315 18.9743C126.332 18.4493 126.226 17.9278 126.005 17.4509C125.805 17.0466 125.514 16.6942 125.155 16.421Z" fill="white"/>
<path d="M139.673 19.594V10.3713H137.658V16.2661C137.664 16.9016 137.59 17.5353 137.438 18.1524C137.309 18.6813 137.08 19.1808 136.764 19.6244C136.464 20.0367 136.064 20.3657 135.601 20.5801C135.069 20.8164 134.491 20.9315 133.909 20.917C133.516 20.9488 133.12 20.8856 132.756 20.7328C132.392 20.58 132.07 20.3419 131.817 20.0387C131.333 19.3344 131.096 18.4895 131.143 17.6362V10.3713H129.128V17.8374C129.122 18.5142 129.213 19.1883 129.399 19.8391C129.561 20.416 129.849 20.95 130.241 21.4029C130.634 21.8456 131.124 22.1915 131.673 22.4134C132.327 22.6686 133.025 22.7917 133.727 22.7755C134.199 22.7793 134.669 22.7138 135.122 22.581C135.531 22.4619 135.922 22.2883 136.284 22.0648C136.614 21.8618 136.914 21.6141 137.175 21.3288C137.41 21.0749 137.607 20.7874 137.757 20.4757H137.808C137.808 20.821 137.817 21.1578 137.834 21.4862C137.852 21.8147 137.86 22.142 137.86 22.4681H139.772C139.772 22.0712 139.755 21.6319 139.72 21.1502C139.685 20.6686 139.669 20.1498 139.673 19.594Z" fill="white"/>
<path d="M161.451 13.0198C161.317 12.4348 161.052 11.8878 160.676 11.4198C160.296 10.967 159.807 10.619 159.255 10.4093C158.56 10.1583 157.824 10.0401 157.085 10.0606C156.283 10.0256 155.489 10.2375 154.811 10.6678C154.183 11.1185 153.655 11.6949 153.262 12.3604C153.159 12.1532 153.025 11.9163 152.861 11.6497C152.678 11.3617 152.447 11.1081 152.176 10.9002C151.844 10.6479 151.475 10.449 151.082 10.3107C150.553 10.1331 149.998 10.0498 149.44 10.0648C148.968 10.0609 148.499 10.1265 148.046 10.2594C147.637 10.3785 147.246 10.5521 146.883 10.7756C146.554 10.9788 146.254 11.2265 145.992 11.5116C145.757 11.7654 145.561 12.0529 145.411 12.3646H145.359C145.359 12.0194 145.35 11.6842 145.333 11.3541C145.317 11.024 145.307 10.6998 145.307 10.3722H143.396C143.396 10.7691 143.413 11.2084 143.447 11.6901C143.481 12.1718 143.498 12.6885 143.498 13.2404V22.4623H145.515V16.5726C145.509 15.9368 145.583 15.3028 145.735 14.6855C145.864 14.1563 146.092 13.6567 146.409 13.2135C146.708 12.801 147.108 12.472 147.571 12.2577C148.103 12.0212 148.681 11.9062 149.264 11.9208C149.608 11.8914 149.955 11.9538 150.268 12.1017C150.581 12.2496 150.849 12.4777 151.045 12.7629C151.478 13.649 151.666 14.6347 151.589 15.6177V22.464H153.599V15.4863C153.594 14.9891 153.677 14.4948 153.845 14.0269C153.995 13.6122 154.224 13.2306 154.519 12.9036C154.798 12.5974 155.136 12.3513 155.514 12.1802C155.895 12.0075 156.309 11.9193 156.728 11.9217C157.226 11.9036 157.721 12.0007 158.175 12.2055C158.532 12.3783 158.843 12.6359 159.078 12.9558C159.305 13.2725 159.464 13.6329 159.544 14.0143C159.63 14.4133 159.673 14.8204 159.673 15.2286V22.4623H161.684V15.125C161.691 14.4165 161.613 13.7096 161.451 13.0198Z" fill="white"/>
</svg>
