<svg width="32" height="32" viewBox="0 0 32 32" fill="none" xmlns="http://www.w3.org/2000/svg">
<path d="M0 10.6653V16.5895C2.02441 16.5881 4.02924 16.9859 5.89976 17.7601C7.77028 18.5343 9.46978 19.6697 10.901 21.1015C12.3319 22.5327 13.4667 24.2319 14.2404 26.1019C15.0142 27.9719 15.4118 29.9762 15.4105 32H21.3305C21.3251 26.344 19.0762 20.9212 15.0773 16.9215C11.0783 12.9217 5.65593 10.6717 0 10.6653H0Z" fill="white"/>
<path d="M29.6057 0H20.2239C24.97 3.00768 28.9915 7.02862 31.9998 11.7743V2.39241C31.9994 1.75775 31.747 1.14924 31.298 0.700619C30.8491 0.252003 30.2404 -1.57043e-07 29.6057 0V0Z" fill="white"/>
<path d="M5.89472 0H0V5.33388C7.07009 5.34123 13.8485 8.15302 18.8479 13.1523C23.8473 18.1515 26.6593 24.9298 26.6669 31.9999H31.9999V26.1052C30.7941 19.6265 27.6547 13.6648 22.9949 9.00502C18.3351 4.34523 12.3734 1.20578 5.89472 0V0Z" fill="white"/>
</svg>
