<svg width="14" height="14" viewBox="0 0 14 14" fill="none" xmlns="http://www.w3.org/2000/svg">
<path fill-rule="evenodd" clip-rule="evenodd" d="M9.59589 13.826C7.58389 13.826 5.21656 12.758 3.22856 10.7713C0.0565567 7.59867 -0.771443 3.45734 1.34322 1.34267C1.96789 0.718672 2.72789 0.338672 3.60456 0.212005L4.11122 0.138672L5.97589 4.48667L4.11122 5.41867C4.54322 6.23734 5.19789 7.08334 6.05722 7.94267C6.87656 8.76201 7.72189 9.41201 8.57056 9.87334L9.44656 8.15801L13.7686 8.77534L13.7939 9.32667C13.8572 10.6993 13.4639 11.8507 12.6566 12.6573C11.8672 13.4467 10.7946 13.826 9.59589 13.826ZM3.30722 1.64801C2.92389 1.77667 2.58122 1.99067 2.28589 2.28667C0.752557 3.81934 1.61656 7.27334 4.17122 9.82867C6.72722 12.384 10.1806 13.246 11.7139 11.714C12.2246 11.2033 12.4086 10.53 12.4539 9.934L10.2092 9.61334L9.77856 10.476C9.61589 10.8013 9.33522 11.0407 8.98789 11.1493C8.64056 11.2593 8.25522 11.22 7.93256 11.0447C6.97256 10.5227 6.02389 9.796 5.11389 8.886C4.16056 7.93267 3.42789 6.98 2.93522 6.054C2.76389 5.73067 2.73122 5.36134 2.84189 5.01334C2.95256 4.66734 3.19189 4.388 3.51656 4.22534L4.25389 3.85667L3.30722 1.64801Z" fill="white"/>
</svg>
