<svg width="54" height="38" viewBox="0 0 54 38" fill="none" xmlns="http://www.w3.org/2000/svg">
<path fill-rule="evenodd" clip-rule="evenodd" d="M18.9999 23.6667C12.7599 23.6667 0.333252 26.7867 0.333252 33V37.6667H37.6666V33C37.6666 26.7867 25.2399 23.6667 18.9999 23.6667ZM6.57325 32.3334C8.81325 30.7867 14.2266 29 18.9999 29C23.7733 29 29.1866 30.7867 31.4266 32.3334H6.57325ZM18.9999 19C24.1466 19 28.3332 14.8134 28.3332 9.66671C28.3332 4.52004 24.1466 0.333374 18.9999 0.333374C13.8533 0.333374 9.66659 4.52004 9.66659 9.66671C9.66659 14.8134 13.8533 19 18.9999 19ZM18.9999 5.66671C21.2133 5.66671 22.9999 7.45337 22.9999 9.66671C22.9999 11.88 21.2133 13.6667 18.9999 13.6667C16.7866 13.6667 14.9999 11.88 14.9999 9.66671C14.9999 7.45337 16.7866 5.66671 18.9999 5.66671ZM37.7733 23.8267C40.8666 26.0667 42.9999 29.0534 42.9999 33V37.6667H53.6666V33C53.6666 27.6134 44.3333 24.5467 37.7733 23.8267V23.8267ZM34.9999 19C40.1466 19 44.3333 14.8134 44.3333 9.66671C44.3333 4.52004 40.1466 0.333374 34.9999 0.333374C33.5599 0.333374 32.2266 0.680041 30.9999 1.26671C32.6799 3.64004 33.6666 6.54671 33.6666 9.66671C33.6666 12.7867 32.6799 15.6934 30.9999 18.0667C32.2266 18.6534 33.5599 19 34.9999 19Z" fill="white"/>
</svg>
