<svg width="60" height="54" viewBox="0 0 60 54" fill="none" xmlns="http://www.w3.org/2000/svg">
<path fill-rule="evenodd" clip-rule="evenodd" d="M54.0001 19.3333H37.1734L39.7067 7.14663L39.7867 6.29329C39.7867 5.19996 39.3334 4.18663 38.6134 3.46663L35.7867 0.666626L18.2401 18.24C17.2534 19.2 16.6667 20.5333 16.6667 22V48.6666C16.6667 51.6 19.0667 54 22.0001 54H46.0001C48.2134 54 50.1067 52.6666 50.9067 50.7466L58.9601 31.9466C59.2001 31.3333 59.3334 30.6933 59.3334 30V24.6666C59.3334 21.7333 56.9334 19.3333 54.0001 19.3333ZM54.0001 30L46.0001 48.6666H22.0001V22L33.5734 10.4266L30.6134 24.6666H54.0001V30ZM0.666748 22H11.3334V54H0.666748V22Z" fill="white"/>
</svg>
